<svg xmlns="http://www.w3.org/2000/svg" xmlns:xlink="http://www.w3.org/1999/xlink" width="500" zoomAndPan="magnify" viewBox="0 0 375 374.999991" height="500" preserveAspectRatio="xMidYMid meet" version="1.0"><defs><g/><clipPath id="6980e065b1"><path d="M 151.929688 129.699219 L 196.265625 129.699219 L 196.265625 239.78125 L 151.929688 239.78125 Z M 151.929688 129.699219 " clip-rule="nonzero"/></clipPath></defs><g fill="#000000" fill-opacity="1"><g transform="translate(156.035595, 233.672891)"><g><path d="M 1.972656 0 L 21.929688 0 L 25.378906 -9.484375 L 54.574219 -9.484375 L 58.148438 0 L 77.980469 0 L 40.898438 -91.285156 L 39.050781 -91.285156 Z M 31.785156 -25.992188 L 40.039062 -48.90625 L 48.046875 -25.992188 Z M 31.785156 -25.992188 "/></g></g></g><g clip-path="url(#6980e065b1)"><path fill="#ffffff" d="M 151.929688 129.699219 L 196.265625 129.699219 L 196.265625 239.851562 L 151.929688 239.851562 Z M 151.929688 129.699219 " fill-opacity="1" fill-rule="nonzero"/></g><g fill="#f8800a" fill-opacity="1"><g transform="translate(203.531404, 142.495459)"><g><path d="M -10.195312 91.125 L -10.195312 0 L -57.351562 0 L -57.351562 18.226562 L -28.421875 18.226562 L -28.421875 91.125 Z M -10.195312 91.125 "/></g></g></g><g fill="#000000" fill-opacity="1"><g transform="translate(112.365232, 258.022541)"><g><path d="M 14.375 -14.21875 L 9.140625 -14.21875 L 9.140625 0 L 5.625 0 L 5.625 -14.21875 L 0.46875 -14.21875 L 0.46875 -17.0625 L 14.375 -17.0625 Z M 14.375 -14.21875 "/></g></g></g><g fill="#000000" fill-opacity="1"><g transform="translate(127.205643, 258.022541)"><g><path d="M 11.796875 -7.390625 L 5.046875 -7.390625 L 5.046875 -2.828125 L 12.96875 -2.828125 L 12.96875 0 L 1.53125 0 L 1.53125 -17.0625 L 12.9375 -17.0625 L 12.9375 -14.21875 L 5.046875 -14.21875 L 5.046875 -10.15625 L 11.796875 -10.15625 Z M 11.796875 -7.390625 "/></g></g></g><g fill="#000000" fill-opacity="1"><g transform="translate(140.699051, 258.022541)"><g><path d="M 14.921875 -5.6875 C 14.785156 -3.851562 14.101562 -2.40625 12.875 -1.34375 C 11.65625 -0.289062 10.046875 0.234375 8.046875 0.234375 C 5.859375 0.234375 4.140625 -0.5 2.890625 -1.96875 C 1.640625 -3.445312 1.015625 -5.472656 1.015625 -8.046875 L 1.015625 -9.078125 C 1.015625 -10.722656 1.300781 -12.171875 1.875 -13.421875 C 2.457031 -14.671875 3.285156 -15.628906 4.359375 -16.296875 C 5.429688 -16.960938 6.675781 -17.296875 8.09375 -17.296875 C 10.0625 -17.296875 11.644531 -16.769531 12.84375 -15.71875 C 14.050781 -14.664062 14.75 -13.1875 14.9375 -11.28125 L 11.421875 -11.28125 C 11.335938 -12.375 11.03125 -13.171875 10.5 -13.671875 C 9.976562 -14.171875 9.175781 -14.421875 8.09375 -14.421875 C 6.925781 -14.421875 6.050781 -14 5.46875 -13.15625 C 4.882812 -12.3125 4.585938 -11.007812 4.578125 -9.25 L 4.578125 -7.953125 C 4.578125 -6.109375 4.851562 -4.757812 5.40625 -3.90625 C 5.96875 -3.0625 6.847656 -2.640625 8.046875 -2.640625 C 9.140625 -2.640625 9.953125 -2.882812 10.484375 -3.375 C 11.015625 -3.875 11.320312 -4.644531 11.40625 -5.6875 Z M 14.921875 -5.6875 "/></g></g></g><g fill="#000000" fill-opacity="1"><g transform="translate(156.394507, 258.022541)"><g><path d="M 15.40625 0 L 11.890625 0 L 11.890625 -7.3125 L 5.046875 -7.3125 L 5.046875 0 L 1.53125 0 L 1.53125 -17.0625 L 5.046875 -17.0625 L 5.046875 -10.15625 L 11.890625 -10.15625 L 11.890625 -17.0625 L 15.40625 -17.0625 Z M 15.40625 0 "/></g></g></g><g fill="#000000" fill-opacity="1"><g transform="translate(173.343264, 258.022541)"><g/></g></g><g fill="#f8800a" fill-opacity="1"><g transform="translate(179.208978, 258.022541)"><g><path d="M 11.15625 -3.515625 L 5 -3.515625 L 3.828125 0 L 0.078125 0 L 6.4375 -17.0625 L 9.6875 -17.0625 L 16.078125 0 L 12.34375 0 Z M 5.9375 -6.359375 L 10.203125 -6.359375 L 8.0625 -12.75 Z M 5.9375 -6.359375 "/></g></g></g><g fill="#f8800a" fill-opacity="1"><g transform="translate(195.34953, 258.022541)"><g><path d="M 11.796875 -6.96875 L 5.046875 -6.96875 L 5.046875 0 L 1.53125 0 L 1.53125 -17.0625 L 12.640625 -17.0625 L 12.640625 -14.21875 L 5.046875 -14.21875 L 5.046875 -9.8125 L 11.796875 -9.8125 Z M 11.796875 -6.96875 "/></g></g></g><g fill="#f8800a" fill-opacity="1"><g transform="translate(208.491546, 258.022541)"><g><path d="M 7.84375 -6.25 L 5.046875 -6.25 L 5.046875 0 L 1.53125 0 L 1.53125 -17.0625 L 7.859375 -17.0625 C 9.878906 -17.0625 11.4375 -16.613281 12.53125 -15.71875 C 13.625 -14.820312 14.171875 -13.550781 14.171875 -11.90625 C 14.171875 -10.738281 13.914062 -9.765625 13.40625 -8.984375 C 12.90625 -8.210938 12.144531 -7.597656 11.125 -7.140625 L 14.8125 -0.171875 L 14.8125 0 L 11.046875 0 Z M 5.046875 -9.09375 L 7.875 -9.09375 C 8.757812 -9.09375 9.441406 -9.316406 9.921875 -9.765625 C 10.410156 -10.210938 10.65625 -10.832031 10.65625 -11.625 C 10.65625 -12.425781 10.425781 -13.054688 9.96875 -13.515625 C 9.507812 -13.984375 8.804688 -14.21875 7.859375 -14.21875 L 5.046875 -14.21875 Z M 5.046875 -9.09375 "/></g></g></g><g fill="#f8800a" fill-opacity="1"><g transform="translate(223.800479, 258.022541)"><g><path d="M 5.265625 0 L 1.75 0 L 1.75 -17.0625 L 5.265625 -17.0625 Z M 5.265625 0 "/></g></g></g><g fill="#f8800a" fill-opacity="1"><g transform="translate(230.793161, 258.022541)"><g><path d="M 14.921875 -5.6875 C 14.785156 -3.851562 14.101562 -2.40625 12.875 -1.34375 C 11.65625 -0.289062 10.046875 0.234375 8.046875 0.234375 C 5.859375 0.234375 4.140625 -0.5 2.890625 -1.96875 C 1.640625 -3.445312 1.015625 -5.472656 1.015625 -8.046875 L 1.015625 -9.078125 C 1.015625 -10.722656 1.300781 -12.171875 1.875 -13.421875 C 2.457031 -14.671875 3.285156 -15.628906 4.359375 -16.296875 C 5.429688 -16.960938 6.675781 -17.296875 8.09375 -17.296875 C 10.0625 -17.296875 11.644531 -16.769531 12.84375 -15.71875 C 14.050781 -14.664062 14.75 -13.1875 14.9375 -11.28125 L 11.421875 -11.28125 C 11.335938 -12.375 11.03125 -13.171875 10.5 -13.671875 C 9.976562 -14.171875 9.175781 -14.421875 8.09375 -14.421875 C 6.925781 -14.421875 6.050781 -14 5.46875 -13.15625 C 4.882812 -12.3125 4.585938 -11.007812 4.578125 -9.25 L 4.578125 -7.953125 C 4.578125 -6.109375 4.851562 -4.757812 5.40625 -3.90625 C 5.96875 -3.0625 6.847656 -2.640625 8.046875 -2.640625 C 9.140625 -2.640625 9.953125 -2.882812 10.484375 -3.375 C 11.015625 -3.875 11.320312 -4.644531 11.40625 -5.6875 Z M 14.921875 -5.6875 "/></g></g></g><g fill="#f8800a" fill-opacity="1"><g transform="translate(246.488618, 258.022541)"><g><path d="M 11.15625 -3.515625 L 5 -3.515625 L 3.828125 0 L 0.078125 0 L 6.4375 -17.0625 L 9.6875 -17.0625 L 16.078125 0 L 12.34375 0 Z M 5.9375 -6.359375 L 10.203125 -6.359375 L 8.0625 -12.75 Z M 5.9375 -6.359375 "/></g></g></g></svg>