<svg xmlns="http://www.w3.org/2000/svg" xmlns:xlink="http://www.w3.org/1999/xlink" width="100" zoomAndPan="magnify" viewBox="0 0 75 105.749996" height="141" preserveAspectRatio="xMidYMid meet" version="1.0"><defs><g/><clipPath id="c611d2ed09"><path d="M 21.910156 27.792969 L 41.34375 27.792969 L 41.34375 76.035156 L 21.910156 76.035156 Z M 21.910156 27.792969 " clip-rule="nonzero"/></clipPath></defs><g fill="#000000" fill-opacity="1"><g transform="translate(23.711907, 73.357954)"><g><path d="M 0.863281 0 L 9.609375 0 L 11.121094 -4.15625 L 23.914062 -4.15625 L 25.480469 0 L 34.171875 0 L 17.921875 -40.003906 L 17.113281 -40.003906 Z M 13.929688 -11.390625 L 17.546875 -21.433594 L 21.054688 -11.390625 Z M 13.929688 -11.390625 "/></g></g></g><g clip-path="url(#c611d2ed09)"><path fill="#ffffff" d="M 21.910156 27.792969 L 41.34375 27.792969 L 41.34375 76.066406 L 21.910156 76.066406 Z M 21.910156 27.792969 " fill-opacity="1" fill-rule="nonzero"/></g><g fill="#f8800a" fill-opacity="1"><g transform="translate(44.525166, 33.402846)"><g><path d="M -4.46875 39.933594 L -4.46875 0 L -25.132812 0 L -25.132812 7.988281 L -12.453125 7.988281 L -12.453125 39.933594 Z M -4.46875 39.933594 "/></g></g></g><g fill="#000000" fill-opacity="1"><g transform="translate(4.574996, 84.028282)"><g><path d="M 6.296875 -6.234375 L 4 -6.234375 L 4 0 L 2.46875 0 L 2.46875 -6.234375 L 0.203125 -6.234375 L 0.203125 -7.46875 L 6.296875 -7.46875 Z M 6.296875 -6.234375 "/></g></g></g><g fill="#000000" fill-opacity="1"><g transform="translate(11.078251, 84.028282)"><g><path d="M 5.171875 -3.234375 L 2.203125 -3.234375 L 2.203125 -1.234375 L 5.671875 -1.234375 L 5.671875 0 L 0.671875 0 L 0.671875 -7.46875 L 5.671875 -7.46875 L 5.671875 -6.234375 L 2.203125 -6.234375 L 2.203125 -4.453125 L 5.171875 -4.453125 Z M 5.171875 -3.234375 "/></g></g></g><g fill="#000000" fill-opacity="1"><g transform="translate(16.991232, 84.028282)"><g><path d="M 6.53125 -2.484375 C 6.476562 -1.679688 6.179688 -1.046875 5.640625 -0.578125 C 5.109375 -0.117188 4.40625 0.109375 3.53125 0.109375 C 2.570312 0.109375 1.816406 -0.210938 1.265625 -0.859375 C 0.710938 -1.503906 0.4375 -2.390625 0.4375 -3.515625 L 0.4375 -3.984375 C 0.4375 -4.703125 0.5625 -5.332031 0.8125 -5.875 C 1.070312 -6.425781 1.4375 -6.847656 1.90625 -7.140625 C 2.375 -7.429688 2.921875 -7.578125 3.546875 -7.578125 C 4.410156 -7.578125 5.101562 -7.34375 5.625 -6.875 C 6.15625 -6.414062 6.460938 -5.769531 6.546875 -4.9375 L 5 -4.9375 C 4.96875 -5.414062 4.832031 -5.765625 4.59375 -5.984375 C 4.363281 -6.203125 4.015625 -6.3125 3.546875 -6.3125 C 3.035156 -6.3125 2.648438 -6.128906 2.390625 -5.765625 C 2.140625 -5.398438 2.007812 -4.828125 2 -4.046875 L 2 -3.484375 C 2 -2.679688 2.117188 -2.09375 2.359375 -1.71875 C 2.609375 -1.34375 3 -1.15625 3.53125 -1.15625 C 4 -1.15625 4.347656 -1.265625 4.578125 -1.484375 C 4.816406 -1.703125 4.957031 -2.035156 5 -2.484375 Z M 6.53125 -2.484375 "/></g></g></g><g fill="#000000" fill-opacity="1"><g transform="translate(23.869179, 84.028282)"><g><path d="M 6.75 0 L 5.21875 0 L 5.21875 -3.203125 L 2.203125 -3.203125 L 2.203125 0 L 0.671875 0 L 0.671875 -7.46875 L 2.203125 -7.46875 L 2.203125 -4.453125 L 5.21875 -4.453125 L 5.21875 -7.46875 L 6.75 -7.46875 Z M 6.75 0 "/></g></g></g><g fill="#000000" fill-opacity="1"><g transform="translate(31.296338, 84.028282)"><g/></g></g><g fill="#f8800a" fill-opacity="1"><g transform="translate(33.866768, 84.028282)"><g><path d="M 4.890625 -1.546875 L 2.1875 -1.546875 L 1.671875 0 L 0.03125 0 L 2.8125 -7.46875 L 4.25 -7.46875 L 7.046875 0 L 5.40625 0 Z M 2.609375 -2.78125 L 4.46875 -2.78125 L 3.53125 -5.59375 Z M 2.609375 -2.78125 "/></g></g></g><g fill="#f8800a" fill-opacity="1"><g transform="translate(40.939761, 84.028282)"><g><path d="M 5.171875 -3.0625 L 2.203125 -3.0625 L 2.203125 0 L 0.671875 0 L 0.671875 -7.46875 L 5.53125 -7.46875 L 5.53125 -6.234375 L 2.203125 -6.234375 L 2.203125 -4.296875 L 5.171875 -4.296875 Z M 5.171875 -3.0625 "/></g></g></g><g fill="#f8800a" fill-opacity="1"><g transform="translate(46.698759, 84.028282)"><g><path d="M 3.4375 -2.734375 L 2.203125 -2.734375 L 2.203125 0 L 0.671875 0 L 0.671875 -7.46875 L 3.4375 -7.46875 C 4.320312 -7.46875 5.003906 -7.269531 5.484375 -6.875 C 5.960938 -6.488281 6.203125 -5.9375 6.203125 -5.21875 C 6.203125 -4.707031 6.09375 -4.28125 5.875 -3.9375 C 5.65625 -3.601562 5.320312 -3.332031 4.875 -3.125 L 6.484375 -0.078125 L 6.484375 0 L 4.84375 0 Z M 2.203125 -3.984375 L 3.453125 -3.984375 C 3.835938 -3.984375 4.132812 -4.082031 4.34375 -4.28125 C 4.5625 -4.476562 4.671875 -4.75 4.671875 -5.09375 C 4.671875 -5.445312 4.566406 -5.722656 4.359375 -5.921875 C 4.160156 -6.128906 3.851562 -6.234375 3.4375 -6.234375 L 2.203125 -6.234375 Z M 2.203125 -3.984375 "/></g></g></g><g fill="#f8800a" fill-opacity="1"><g transform="translate(53.407326, 84.028282)"><g><path d="M 2.3125 0 L 0.765625 0 L 0.765625 -7.46875 L 2.3125 -7.46875 Z M 2.3125 0 "/></g></g></g><g fill="#f8800a" fill-opacity="1"><g transform="translate(56.471608, 84.028282)"><g><path d="M 6.53125 -2.484375 C 6.476562 -1.679688 6.179688 -1.046875 5.640625 -0.578125 C 5.109375 -0.117188 4.40625 0.109375 3.53125 0.109375 C 2.570312 0.109375 1.816406 -0.210938 1.265625 -0.859375 C 0.710938 -1.503906 0.4375 -2.390625 0.4375 -3.515625 L 0.4375 -3.984375 C 0.4375 -4.703125 0.5625 -5.332031 0.8125 -5.875 C 1.070312 -6.425781 1.4375 -6.847656 1.90625 -7.140625 C 2.375 -7.429688 2.921875 -7.578125 3.546875 -7.578125 C 4.410156 -7.578125 5.101562 -7.34375 5.625 -6.875 C 6.15625 -6.414062 6.460938 -5.769531 6.546875 -4.9375 L 5 -4.9375 C 4.96875 -5.414062 4.832031 -5.765625 4.59375 -5.984375 C 4.363281 -6.203125 4.015625 -6.3125 3.546875 -6.3125 C 3.035156 -6.3125 2.648438 -6.128906 2.390625 -5.765625 C 2.140625 -5.398438 2.007812 -4.828125 2 -4.046875 L 2 -3.484375 C 2 -2.679688 2.117188 -2.09375 2.359375 -1.71875 C 2.609375 -1.34375 3 -1.15625 3.53125 -1.15625 C 4 -1.15625 4.347656 -1.265625 4.578125 -1.484375 C 4.816406 -1.703125 4.957031 -2.035156 5 -2.484375 Z M 6.53125 -2.484375 "/></g></g></g><g fill="#f8800a" fill-opacity="1"><g transform="translate(63.349555, 84.028282)"><g><path d="M 4.890625 -1.546875 L 2.1875 -1.546875 L 1.671875 0 L 0.03125 0 L 2.8125 -7.46875 L 4.25 -7.46875 L 7.046875 0 L 5.40625 0 Z M 2.609375 -2.78125 L 4.46875 -2.78125 L 3.53125 -5.59375 Z M 2.609375 -2.78125 "/></g></g></g></svg>