<svg xmlns="http://www.w3.org/2000/svg" xmlns:xlink="http://www.w3.org/1999/xlink" width="226" zoomAndPan="magnify" viewBox="0 0 169.5 239.249991" height="319" preserveAspectRatio="xMidYMid meet" version="1.0"><defs><g/><clipPath id="67a0a6275a"><path d="M 49.039062 62.003906 L 93.242188 62.003906 L 93.242188 171.742188 L 49.039062 171.742188 Z M 49.039062 62.003906 " clip-rule="nonzero"/></clipPath></defs><g fill="#000000" fill-opacity="1"><g transform="translate(53.134717, 165.653608)"><g><path d="M 1.964844 0 L 21.859375 0 L 25.296875 -9.457031 L 54.402344 -9.457031 L 57.964844 0 L 77.738281 0 L 40.773438 -91 L 38.929688 -91 Z M 31.683594 -25.914062 L 39.914062 -48.753906 L 47.894531 -25.914062 Z M 31.683594 -25.914062 "/></g></g></g><g clip-path="url(#67a0a6275a)"><path fill="#ffffff" d="M 49.039062 62.003906 L 93.242188 62.003906 L 93.242188 171.8125 L 49.039062 171.8125 Z M 49.039062 62.003906 " fill-opacity="1" fill-rule="nonzero"/></g><g fill="#f8800a" fill-opacity="1"><g transform="translate(100.482092, 74.761087)"><g><path d="M -10.164062 90.839844 L -10.164062 0 L -57.171875 0 L -57.171875 18.167969 L -28.332031 18.167969 L -28.332031 90.839844 Z M -10.164062 90.839844 "/></g></g></g><g fill="#000000" fill-opacity="1"><g transform="translate(9.600814, 189.927177)"><g><path d="M 14.328125 -14.171875 L 9.109375 -14.171875 L 9.109375 0 L 5.609375 0 L 5.609375 -14.171875 L 0.46875 -14.171875 L 0.46875 -17 L 14.328125 -17 Z M 14.328125 -14.171875 "/></g></g></g><g fill="#000000" fill-opacity="1"><g transform="translate(24.394849, 189.927177)"><g><path d="M 11.75 -7.375 L 5.015625 -7.375 L 5.015625 -2.8125 L 12.921875 -2.8125 L 12.921875 0 L 1.515625 0 L 1.515625 -17 L 12.890625 -17 L 12.890625 -14.171875 L 5.015625 -14.171875 L 5.015625 -10.109375 L 11.75 -10.109375 Z M 11.75 -7.375 "/></g></g></g><g fill="#000000" fill-opacity="1"><g transform="translate(37.846089, 189.927177)"><g><path d="M 14.875 -5.671875 C 14.738281 -3.835938 14.0625 -2.394531 12.84375 -1.34375 C 11.625 -0.289062 10.019531 0.234375 8.03125 0.234375 C 5.84375 0.234375 4.125 -0.5 2.875 -1.96875 C 1.625 -3.4375 1 -5.453125 1 -8.015625 L 1 -9.046875 C 1 -10.679688 1.285156 -12.125 1.859375 -13.375 C 2.441406 -14.625 3.269531 -15.578125 4.34375 -16.234375 C 5.414062 -16.898438 6.660156 -17.234375 8.078125 -17.234375 C 10.035156 -17.234375 11.613281 -16.707031 12.8125 -15.65625 C 14.007812 -14.613281 14.703125 -13.140625 14.890625 -11.234375 L 11.390625 -11.234375 C 11.304688 -12.335938 11 -13.132812 10.46875 -13.625 C 9.945312 -14.113281 9.148438 -14.359375 8.078125 -14.359375 C 6.898438 -14.359375 6.019531 -13.941406 5.4375 -13.109375 C 4.863281 -12.273438 4.570312 -10.976562 4.5625 -9.21875 L 4.5625 -7.9375 C 4.5625 -6.09375 4.835938 -4.742188 5.390625 -3.890625 C 5.941406 -3.046875 6.820312 -2.625 8.03125 -2.625 C 9.101562 -2.625 9.90625 -2.867188 10.4375 -3.359375 C 10.976562 -3.859375 11.285156 -4.628906 11.359375 -5.671875 Z M 14.875 -5.671875 "/></g></g></g><g fill="#000000" fill-opacity="1"><g transform="translate(53.492497, 189.927177)"><g><path d="M 15.359375 0 L 11.859375 0 L 11.859375 -7.28125 L 5.015625 -7.28125 L 5.015625 0 L 1.515625 0 L 1.515625 -17 L 5.015625 -17 L 5.015625 -10.109375 L 11.859375 -10.109375 L 11.859375 -17 L 15.359375 -17 Z M 15.359375 0 "/></g></g></g><g fill="#000000" fill-opacity="1"><g transform="translate(70.388288, 189.927177)"><g/></g></g><g fill="#f8800a" fill-opacity="1"><g transform="translate(76.235672, 189.927177)"><g><path d="M 11.125 -3.5 L 4.96875 -3.5 L 3.8125 0 L 0.078125 0 L 6.40625 -17 L 9.65625 -17 L 16.03125 0 L 12.296875 0 Z M 5.921875 -6.34375 L 10.171875 -6.34375 L 8.03125 -12.703125 Z M 5.921875 -6.34375 "/></g></g></g><g fill="#f8800a" fill-opacity="1"><g transform="translate(92.325785, 189.927177)"><g><path d="M 11.75 -6.953125 L 5.015625 -6.953125 L 5.015625 0 L 1.515625 0 L 1.515625 -17 L 12.59375 -17 L 12.59375 -14.171875 L 5.015625 -14.171875 L 5.015625 -9.78125 L 11.75 -9.78125 Z M 11.75 -6.953125 "/></g></g></g><g fill="#f8800a" fill-opacity="1"><g transform="translate(105.426732, 189.927177)"><g><path d="M 7.8125 -6.21875 L 5.015625 -6.21875 L 5.015625 0 L 1.515625 0 L 1.515625 -17 L 7.84375 -17 C 9.84375 -17 11.390625 -16.550781 12.484375 -15.65625 C 13.578125 -14.769531 14.125 -13.507812 14.125 -11.875 C 14.125 -10.707031 13.867188 -9.734375 13.359375 -8.953125 C 12.859375 -8.179688 12.097656 -7.566406 11.078125 -7.109375 L 14.765625 -0.15625 L 14.765625 0 L 11 0 Z M 5.015625 -9.0625 L 7.84375 -9.0625 C 8.726562 -9.0625 9.410156 -9.285156 9.890625 -9.734375 C 10.378906 -10.179688 10.625 -10.800781 10.625 -11.59375 C 10.625 -12.394531 10.394531 -13.023438 9.9375 -13.484375 C 9.476562 -13.941406 8.78125 -14.171875 7.84375 -14.171875 L 5.015625 -14.171875 Z M 5.015625 -9.0625 "/></g></g></g><g fill="#f8800a" fill-opacity="1"><g transform="translate(120.687824, 189.927177)"><g><path d="M 5.25 0 L 1.734375 0 L 1.734375 -17 L 5.25 -17 Z M 5.25 0 "/></g></g></g><g fill="#f8800a" fill-opacity="1"><g transform="translate(127.658655, 189.927177)"><g><path d="M 14.875 -5.671875 C 14.738281 -3.835938 14.0625 -2.394531 12.84375 -1.34375 C 11.625 -0.289062 10.019531 0.234375 8.03125 0.234375 C 5.84375 0.234375 4.125 -0.5 2.875 -1.96875 C 1.625 -3.4375 1 -5.453125 1 -8.015625 L 1 -9.046875 C 1 -10.679688 1.285156 -12.125 1.859375 -13.375 C 2.441406 -14.625 3.269531 -15.578125 4.34375 -16.234375 C 5.414062 -16.898438 6.660156 -17.234375 8.078125 -17.234375 C 10.035156 -17.234375 11.613281 -16.707031 12.8125 -15.65625 C 14.007812 -14.613281 14.703125 -13.140625 14.890625 -11.234375 L 11.390625 -11.234375 C 11.304688 -12.335938 11 -13.132812 10.46875 -13.625 C 9.945312 -14.113281 9.148438 -14.359375 8.078125 -14.359375 C 6.898438 -14.359375 6.019531 -13.941406 5.4375 -13.109375 C 4.863281 -12.273438 4.570312 -10.976562 4.5625 -9.21875 L 4.5625 -7.9375 C 4.5625 -6.09375 4.835938 -4.742188 5.390625 -3.890625 C 5.941406 -3.046875 6.820312 -2.625 8.03125 -2.625 C 9.101562 -2.625 9.90625 -2.867188 10.4375 -3.359375 C 10.976562 -3.859375 11.285156 -4.628906 11.359375 -5.671875 Z M 14.875 -5.671875 "/></g></g></g><g fill="#f8800a" fill-opacity="1"><g transform="translate(143.305063, 189.927177)"><g><path d="M 11.125 -3.5 L 4.96875 -3.5 L 3.8125 0 L 0.078125 0 L 6.40625 -17 L 9.65625 -17 L 16.03125 0 L 12.296875 0 Z M 5.921875 -6.34375 L 10.171875 -6.34375 L 8.03125 -12.703125 Z M 5.921875 -6.34375 "/></g></g></g></svg>